<mxfile host="app.diagrams.net" modified="2024-02-19T18:02:15.921Z" agent="Mozilla/5.0 (Windows NT 10.0; Win64; x64) AppleWebKit/537.36 (KHTML, like Gecko) Chrome/121.0.0.0 Safari/537.36 Edg/121.0.0.0" version="23.1.5" etag="KV-IkM7VaUsF9YFHomKL" type="github">
  <diagram name="Page-1" id="XHTpQsnF0snNBYZF9UhV">
    <mxGraphModel>
      <root>
        <mxCell id="0" />
        <mxCell id="1" parent="0" />
      </root>
    </mxGraphModel>
  </diagram>
</mxfile>
